<?xml version="1.0" standalone="no"?><!DOCTYPE svg PUBLIC "-//W3C//DTD SVG 1.1//EN" "http://www.w3.org/Graphics/SVG/1.1/DTD/svg11.dtd"><svg t="1591543843615" class="icon" viewBox="0 0 1024 1024" version="1.1" xmlns="http://www.w3.org/2000/svg" p-id="2917" xmlns:xlink="http://www.w3.org/1999/xlink" width="200" height="200"><defs><style type="text/css"></style></defs><path d="M864 294.4h-704c-70.4 0-121.6-57.6-121.6-121.6 0-70.4 57.6-121.6 121.6-121.6h704c70.4 0 121.6 57.6 121.6 121.6 0 70.4-51.2 121.6-121.6 121.6z m-704-185.6c-38.4 0-64 32-64 64 0 38.4 32 64 64 64h704c38.4 0 64-32 64-64 0-38.4-32-64-64-64h-704zM748.8 972.8h-588.8c-70.4 0-121.6-57.6-121.6-121.6 0-70.4 57.6-121.6 121.6-121.6h588.8c70.4 0 121.6 57.6 121.6 121.6 0 64-51.2 121.6-121.6 121.6z m-588.8-185.6c-38.4 0-64 32-64 64 0 38.4 32 64 64 64h588.8c38.4 0 64-32 64-64 0-38.4-32-64-64-64h-588.8zM576 640h-416c-70.4 0-121.6-57.6-121.6-121.6 0-70.4 57.6-121.6 121.6-121.6h416c70.4 0 121.6 57.6 121.6 121.6 0 70.4-51.2 121.6-121.6 121.6z m-416-185.6c-38.4 0-64 32-64 64 0 38.4 32 64 64 64h416c38.4 0 64-32 64-64 0-38.4-32-64-64-64h-416z" fill="" p-id="2918"></path></svg>